<?xml version="1.0" encoding="UTF-8"?>
<svg id="Layer_2" data-name="Layer 2" xmlns="http://www.w3.org/2000/svg" xmlns:xlink="http://www.w3.org/1999/xlink" viewBox="0 0 979.07 1030.69">
  <defs>
    <style>
      .cls-1 {
        fill: url(#Degradado_sin_nombre_38-8);
      }

      .cls-1, .cls-2, .cls-3, .cls-4, .cls-5, .cls-6, .cls-7, .cls-8, .cls-9, .cls-10, .cls-11, .cls-12, .cls-13 {
        stroke-width: 0px;
      }

      .cls-2 {
        fill: url(#Degradado_sin_nombre_38-9);
      }

      .cls-3 {
        fill: url(#Degradado_sin_nombre_38-11);
      }

      .cls-4 {
        fill: url(#Degradado_sin_nombre_38-10);
      }

      .cls-5 {
        fill: url(#Degradado_sin_nombre_38-5);
      }

      .cls-6 {
        fill: none;
      }

      .cls-7 {
        fill: url(#Degradado_sin_nombre_38-2);
      }

      .cls-8 {
        fill: url(#Degradado_sin_nombre_38-6);
      }

      .cls-9 {
        fill: url(#Degradado_sin_nombre_38);
      }

      .cls-14 {
        clip-path: url(#clippath);
      }

      .cls-10 {
        fill: url(#Degradado_sin_nombre_38-12);
      }

      .cls-11 {
        fill: url(#Degradado_sin_nombre_38-3);
      }

      .cls-12 {
        fill: url(#Degradado_sin_nombre_38-7);
      }

      .cls-13 {
        fill: url(#Degradado_sin_nombre_38-4);
      }
    </style>
    <clipPath id="clippath">
      <rect class="cls-6" x="19.74" y="441.82" width="356" height="346"/>
    </clipPath>
    <linearGradient id="Degradado_sin_nombre_38" data-name="Degradado sin nombre 38" x1="-1796.78" y1="-7416.37" x2="-1384.08" y2="-6707.05" gradientTransform="translate(-1144.16 -6257.5) rotate(-179.48)" gradientUnits="userSpaceOnUse">
      <stop offset="0" stop-color="#f4c57b"/>
      <stop offset=".13" stop-color="#f4c57b"/>
      <stop offset=".21" stop-color="#ffedc8"/>
      <stop offset=".28" stop-color="#c4964c"/>
      <stop offset=".44" stop-color="#ffe1a3"/>
      <stop offset=".59" stop-color="#f4c57b"/>
      <stop offset=".7" stop-color="#c4964c"/>
      <stop offset=".81" stop-color="#ffedc8"/>
      <stop offset=".92" stop-color="#c4964c"/>
      <stop offset="1" stop-color="#f4c57b"/>
    </linearGradient>
    <linearGradient id="Degradado_sin_nombre_38-2" data-name="Degradado sin nombre 38" x1="-1828.83" y1="-7404.55" x2="-1411.08" y2="-6686.55" xlink:href="#Degradado_sin_nombre_38"/>
    <linearGradient id="Degradado_sin_nombre_38-3" data-name="Degradado sin nombre 38" x1="-1861.66" y1="-7392.46" x2="-1438.73" y2="-6665.55" xlink:href="#Degradado_sin_nombre_38"/>
    <linearGradient id="Degradado_sin_nombre_38-4" data-name="Degradado sin nombre 38" x1="-1895.29" y1="-7380.08" x2="-1467.06" y2="-6644.05" xlink:href="#Degradado_sin_nombre_38"/>
    <linearGradient id="Degradado_sin_nombre_38-5" data-name="Degradado sin nombre 38" x1="-1929.77" y1="-7367.4" x2="-1496.09" y2="-6622.02" xlink:href="#Degradado_sin_nombre_38"/>
    <linearGradient id="Degradado_sin_nombre_38-6" data-name="Degradado sin nombre 38" x1="-1965.11" y1="-7354.41" x2="-1525.85" y2="-6599.44" xlink:href="#Degradado_sin_nombre_38"/>
    <linearGradient id="Degradado_sin_nombre_38-7" data-name="Degradado sin nombre 38" x1="-2001.35" y1="-7341.11" x2="-1556.37" y2="-6576.3" xlink:href="#Degradado_sin_nombre_38"/>
    <linearGradient id="Degradado_sin_nombre_38-8" data-name="Degradado sin nombre 38" x1="-2038.52" y1="-7327.47" x2="-1587.67" y2="-6552.57" xlink:href="#Degradado_sin_nombre_38"/>
    <linearGradient id="Degradado_sin_nombre_38-9" data-name="Degradado sin nombre 38" x1="-2076.67" y1="-7313.49" x2="-1619.79" y2="-6528.22" xlink:href="#Degradado_sin_nombre_38"/>
    <linearGradient id="Degradado_sin_nombre_38-10" data-name="Degradado sin nombre 38" x1="-2115.84" y1="-7299.15" x2="-1652.76" y2="-6503.24" xlink:href="#Degradado_sin_nombre_38"/>
    <linearGradient id="Degradado_sin_nombre_38-11" data-name="Degradado sin nombre 38" x1="-2156.05" y1="-7284.44" x2="-1686.61" y2="-6477.6" xlink:href="#Degradado_sin_nombre_38"/>
    <linearGradient id="Degradado_sin_nombre_38-12" data-name="Degradado sin nombre 38" x1="-2197.36" y1="-7269.35" x2="-1721.39" y2="-6451.27" xlink:href="#Degradado_sin_nombre_38"/>
  </defs>
  <g id="Fifth_Row" data-name="Fifth Row">
    <g class="cls-14">
      <g>
        <polygon class="cls-9" points="639.66 1030.69 0 397.65 .07 389.4 .08 389.4 644.68 1027.51 639.66 1030.69"/>
        <polygon class="cls-7" points="19.66 366.26 19.77 358.25 19.77 358.25 671.51 1004.56 666.61 1007.64 19.66 366.26"/>
        <polygon class="cls-11" points="39.8 334.1 39.94 326.35 39.95 326.35 698.97 981.06 694.21 984.05 39.8 334.1"/>
        <polygon class="cls-13" points="60.44 301.14 60.62 293.66 60.62 293.66 727.1 956.99 722.48 959.89 60.44 301.14"/>
        <polygon class="cls-5" points="81.6 267.36 81.8 260.15 81.81 260.15 755.91 932.34 751.44 935.13 81.6 267.36"/>
        <polygon class="cls-8" points="103.3 232.72 103.53 225.8 103.53 225.8 785.43 907.09 781.12 909.76 103.3 232.72"/>
        <polygon class="cls-12" points="125.55 197.19 125.8 190.58 125.81 190.58 815.69 881.2 811.54 883.75 125.55 197.19"/>
        <polygon class="cls-1" points="148.39 160.72 148.66 154.44 148.66 154.43 846.72 854.65 842.74 857.08 148.39 160.72"/>
        <polygon class="cls-2" points="171.82 123.3 172.11 117.35 172.12 117.35 878.53 827.43 874.75 829.72 171.82 123.3"/>
        <polygon class="cls-4" points="195.89 84.88 196.19 79.27 196.2 79.27 911.18 799.5 907.59 801.65 195.89 84.88"/>
        <polygon class="cls-3" points="220.61 45.41 220.92 40.17 220.92 40.17 944.68 770.84 941.29 772.84 220.61 45.41"/>
        <polygon class="cls-10" points="975.9 743.25 246.01 4.85 246.32 0 246.33 0 979.07 741.42 975.9 743.25"/>
      </g>
    </g>
  </g>
</svg>