<?xml version="1.0" encoding="UTF-8"?>
<svg id="Layer_2" data-name="Layer 2" xmlns="http://www.w3.org/2000/svg" xmlns:xlink="http://www.w3.org/1999/xlink" viewBox="0 0 350 347">
  <defs>
    <style>
      .cls-1 {
        fill: url(#Degradado_sin_nombre_38-8);
      }

      .cls-1, .cls-2, .cls-3, .cls-4, .cls-5, .cls-6, .cls-7, .cls-8, .cls-9, .cls-10, .cls-11, .cls-12, .cls-13 {
        stroke-width: 0px;
      }

      .cls-2 {
        fill: url(#Degradado_sin_nombre_38-9);
      }

      .cls-3 {
        fill: url(#Degradado_sin_nombre_38-11);
      }

      .cls-4 {
        fill: url(#Degradado_sin_nombre_38-10);
      }

      .cls-5 {
        fill: url(#Degradado_sin_nombre_38-5);
      }

      .cls-6 {
        fill: none;
      }

      .cls-7 {
        fill: url(#Degradado_sin_nombre_38-2);
      }

      .cls-8 {
        fill: url(#Degradado_sin_nombre_38-6);
      }

      .cls-9 {
        fill: url(#Degradado_sin_nombre_38);
      }

      .cls-14 {
        clip-path: url(#clippath);
      }

      .cls-10 {
        fill: url(#Degradado_sin_nombre_38-12);
      }

      .cls-11 {
        fill: url(#Degradado_sin_nombre_38-3);
      }

      .cls-12 {
        fill: url(#Degradado_sin_nombre_38-7);
      }

      .cls-13 {
        fill: url(#Degradado_sin_nombre_38-4);
      }
    </style>
    <clipPath id="clippath">
      <rect class="cls-6" width="350" height="347"/>
    </clipPath>
    <linearGradient id="Degradado_sin_nombre_38" data-name="Degradado sin nombre 38" x1="-224.35" y1="-378.09" x2="188.35" y2="331.23" gradientTransform="translate(10.57 -6.06) rotate(.52)" gradientUnits="userSpaceOnUse">
      <stop offset="0" stop-color="#f4c57b"/>
      <stop offset=".13" stop-color="#f4c57b"/>
      <stop offset=".21" stop-color="#ffedc8"/>
      <stop offset=".28" stop-color="#c4964c"/>
      <stop offset=".44" stop-color="#ffe1a3"/>
      <stop offset=".59" stop-color="#f4c57b"/>
      <stop offset=".7" stop-color="#c4964c"/>
      <stop offset=".81" stop-color="#ffedc8"/>
      <stop offset=".92" stop-color="#c4964c"/>
      <stop offset="1" stop-color="#f4c57b"/>
    </linearGradient>
    <linearGradient id="Degradado_sin_nombre_38-2" data-name="Degradado sin nombre 38" x1="-256.4" y1="-366.28" x2="161.35" y2="351.73" xlink:href="#Degradado_sin_nombre_38"/>
    <linearGradient id="Degradado_sin_nombre_38-3" data-name="Degradado sin nombre 38" x1="-289.23" y1="-354.18" x2="133.7" y2="372.73" xlink:href="#Degradado_sin_nombre_38"/>
    <linearGradient id="Degradado_sin_nombre_38-4" data-name="Degradado sin nombre 38" x1="-322.87" y1="-341.8" x2="105.37" y2="394.23" xlink:href="#Degradado_sin_nombre_38"/>
    <linearGradient id="Degradado_sin_nombre_38-5" data-name="Degradado sin nombre 38" x1="-357.34" y1="-329.12" x2="76.34" y2="416.26" xlink:href="#Degradado_sin_nombre_38"/>
    <linearGradient id="Degradado_sin_nombre_38-6" data-name="Degradado sin nombre 38" x1="-392.68" y1="-316.14" x2="46.58" y2="438.84" xlink:href="#Degradado_sin_nombre_38"/>
    <linearGradient id="Degradado_sin_nombre_38-7" data-name="Degradado sin nombre 38" x1="-428.92" y1="-302.83" x2="16.06" y2="461.98" xlink:href="#Degradado_sin_nombre_38"/>
    <linearGradient id="Degradado_sin_nombre_38-8" data-name="Degradado sin nombre 38" x1="-466.1" y1="-289.19" x2="-15.24" y2="485.71" xlink:href="#Degradado_sin_nombre_38"/>
    <linearGradient id="Degradado_sin_nombre_38-9" data-name="Degradado sin nombre 38" x1="-504.25" y1="-275.21" x2="-47.36" y2="510.06" xlink:href="#Degradado_sin_nombre_38"/>
    <linearGradient id="Degradado_sin_nombre_38-10" data-name="Degradado sin nombre 38" x1="-543.41" y1="-260.87" x2="-80.33" y2="535.04" xlink:href="#Degradado_sin_nombre_38"/>
    <linearGradient id="Degradado_sin_nombre_38-11" data-name="Degradado sin nombre 38" x1="-583.62" y1="-246.16" x2="-114.19" y2="560.68" xlink:href="#Degradado_sin_nombre_38"/>
    <linearGradient id="Degradado_sin_nombre_38-12" data-name="Degradado sin nombre 38" x1="-624.93" y1="-231.07" x2="-148.96" y2="587.01" xlink:href="#Degradado_sin_nombre_38"/>
  </defs>
  <g id="Back_Elems" data-name="Back Elems">
    <g class="cls-14">
      <g>
        <polygon class="cls-9" points="-264.16 -241.81 375.49 391.23 375.42 399.48 375.42 399.48 -269.18 -238.64 -264.16 -241.81"/>
        <polygon class="cls-7" points="355.83 422.62 355.73 430.62 355.72 430.62 -296.01 -215.68 -291.12 -218.77 355.83 422.62"/>
        <polygon class="cls-11" points="335.69 454.78 335.55 462.53 335.55 462.53 -323.48 -192.18 -318.72 -195.18 335.69 454.78"/>
        <polygon class="cls-13" points="315.05 487.73 314.88 495.22 314.87 495.22 -351.61 -168.12 -346.99 -171.01 315.05 487.73"/>
        <polygon class="cls-5" points="293.89 521.51 293.69 528.72 293.69 528.72 -380.42 -143.47 -375.95 -146.26 293.89 521.51"/>
        <polygon class="cls-8" points="272.2 556.16 271.97 563.07 271.96 563.07 -409.94 -118.21 -405.63 -120.88 272.2 556.16"/>
        <polygon class="cls-12" points="249.94 591.69 249.69 598.3 249.68 598.3 -440.2 -92.32 -436.05 -94.88 249.94 591.69"/>
        <polygon class="cls-1" points="227.11 628.15 226.83 634.44 226.83 634.44 -471.22 -65.78 -467.25 -68.21 227.11 628.15"/>
        <polygon class="cls-2" points="203.67 665.57 203.38 671.53 203.37 671.53 -503.04 -38.56 -499.25 -40.85 203.67 665.57"/>
        <polygon class="cls-4" points="179.6 704 179.3 709.6 179.3 709.6 -535.68 -10.63 -532.09 -12.78 179.6 704"/>
        <polygon class="cls-3" points="154.88 743.47 154.57 748.7 154.57 748.71 -569.18 18.03 -565.8 16.04 154.88 743.47"/>
        <polygon class="cls-10" points="-600.41 45.62 129.48 784.02 129.17 788.87 129.17 788.87 -603.58 47.46 -600.41 45.62"/>
      </g>
    </g>
  </g>
</svg>