<?xml version="1.0" encoding="UTF-8"?>
<svg id="Layer_2" data-name="Layer 2" xmlns="http://www.w3.org/2000/svg" xmlns:xlink="http://www.w3.org/1999/xlink" viewBox="0 0 355.69 354.73">
  <defs>
    <style>
      .cls-1 {
        fill: url(#Degradado_sin_nombre_38-8);
      }

      .cls-1, .cls-2, .cls-3, .cls-4, .cls-5, .cls-6, .cls-7, .cls-8, .cls-9, .cls-10, .cls-11, .cls-12, .cls-13 {
        stroke-width: 0px;
      }

      .cls-2 {
        fill: url(#Degradado_sin_nombre_38-9);
      }

      .cls-3 {
        fill: url(#Degradado_sin_nombre_38-11);
      }

      .cls-4 {
        fill: url(#Degradado_sin_nombre_38-10);
      }

      .cls-5 {
        fill: url(#Degradado_sin_nombre_38-5);
      }

      .cls-6 {
        fill: none;
      }

      .cls-7 {
        fill: url(#Degradado_sin_nombre_38-2);
      }

      .cls-8 {
        fill: url(#Degradado_sin_nombre_38-6);
      }

      .cls-9 {
        fill: url(#Degradado_sin_nombre_38);
      }

      .cls-14 {
        clip-path: url(#clippath);
      }

      .cls-10 {
        fill: url(#Degradado_sin_nombre_38-12);
      }

      .cls-11 {
        fill: url(#Degradado_sin_nombre_38-3);
      }

      .cls-12 {
        fill: url(#Degradado_sin_nombre_38-7);
      }

      .cls-13 {
        fill: url(#Degradado_sin_nombre_38-4);
      }
    </style>
    <clipPath id="clippath">
      <rect class="cls-6" x="0" y="0" width="355.69" height="354.73" transform="translate(355.69 354.73) rotate(180)"/>
    </clipPath>
    <linearGradient id="Degradado_sin_nombre_38" data-name="Degradado sin nombre 38" x1="-1807.83" y1="-6544.99" x2="-1395.13" y2="-5835.67" gradientTransform="translate(-1182.87 6182.81) rotate(179.48) scale(1 -1)" gradientUnits="userSpaceOnUse">
      <stop offset="0" stop-color="#f4c57b"/>
      <stop offset=".13" stop-color="#f4c57b"/>
      <stop offset=".21" stop-color="#ffedc8"/>
      <stop offset=".28" stop-color="#c4964c"/>
      <stop offset=".44" stop-color="#ffe1a3"/>
      <stop offset=".59" stop-color="#f4c57b"/>
      <stop offset=".7" stop-color="#c4964c"/>
      <stop offset=".81" stop-color="#ffedc8"/>
      <stop offset=".92" stop-color="#c4964c"/>
      <stop offset="1" stop-color="#f4c57b"/>
    </linearGradient>
    <linearGradient id="Degradado_sin_nombre_38-2" data-name="Degradado sin nombre 38" x1="-1839.88" y1="-6533.17" x2="-1422.13" y2="-5815.16" xlink:href="#Degradado_sin_nombre_38"/>
    <linearGradient id="Degradado_sin_nombre_38-3" data-name="Degradado sin nombre 38" x1="-1872.71" y1="-6521.08" x2="-1449.78" y2="-5794.17" xlink:href="#Degradado_sin_nombre_38"/>
    <linearGradient id="Degradado_sin_nombre_38-4" data-name="Degradado sin nombre 38" x1="-1906.34" y1="-6508.69" x2="-1478.11" y2="-5772.66" xlink:href="#Degradado_sin_nombre_38"/>
    <linearGradient id="Degradado_sin_nombre_38-5" data-name="Degradado sin nombre 38" x1="-1940.82" y1="-6496.02" x2="-1507.14" y2="-5750.63" xlink:href="#Degradado_sin_nombre_38"/>
    <linearGradient id="Degradado_sin_nombre_38-6" data-name="Degradado sin nombre 38" x1="-1976.16" y1="-6483.03" x2="-1536.9" y2="-5728.06" xlink:href="#Degradado_sin_nombre_38"/>
    <linearGradient id="Degradado_sin_nombre_38-7" data-name="Degradado sin nombre 38" x1="-2012.4" y1="-6469.72" x2="-1567.42" y2="-5704.91" xlink:href="#Degradado_sin_nombre_38"/>
    <linearGradient id="Degradado_sin_nombre_38-8" data-name="Degradado sin nombre 38" x1="-2049.58" y1="-6456.09" x2="-1598.72" y2="-5681.18" xlink:href="#Degradado_sin_nombre_38"/>
    <linearGradient id="Degradado_sin_nombre_38-9" data-name="Degradado sin nombre 38" x1="-2087.73" y1="-6442.11" x2="-1630.84" y2="-5656.84" xlink:href="#Degradado_sin_nombre_38"/>
    <linearGradient id="Degradado_sin_nombre_38-10" data-name="Degradado sin nombre 38" x1="-2126.89" y1="-6427.77" x2="-1663.81" y2="-5631.86" xlink:href="#Degradado_sin_nombre_38"/>
    <linearGradient id="Degradado_sin_nombre_38-11" data-name="Degradado sin nombre 38" x1="-2167.1" y1="-6413.06" x2="-1697.66" y2="-5606.21" xlink:href="#Degradado_sin_nombre_38"/>
    <linearGradient id="Degradado_sin_nombre_38-12" data-name="Degradado sin nombre 38" x1="-2208.41" y1="-6397.96" x2="-1732.44" y2="-5579.88" xlink:href="#Degradado_sin_nombre_38"/>
  </defs>
  <g id="Fourth_Row" data-name="Fourth Row">
    <g class="cls-14">
      <g>
        <polygon class="cls-9" points="619.85 -234.08 -19.81 398.95 -19.74 407.2 -19.73 407.2 624.87 -230.91 619.85 -234.08"/>
        <polygon class="cls-7" points="-.15 430.34 -.04 438.35 -.04 438.35 651.7 -207.96 646.8 -211.04 -.15 430.34"/>
        <polygon class="cls-11" points="19.99 462.5 20.13 470.25 20.14 470.25 679.16 -184.46 674.4 -187.45 19.99 462.5"/>
        <polygon class="cls-13" points="40.63 495.46 40.81 502.94 40.81 502.94 707.29 -160.39 702.67 -163.29 40.63 495.46"/>
        <polygon class="cls-5" points="61.79 529.24 62 536.45 62 536.45 736.1 -135.74 731.63 -138.53 61.79 529.24"/>
        <polygon class="cls-8" points="83.49 563.88 83.72 570.8 83.72 570.8 765.62 -110.49 761.31 -113.16 83.49 563.88"/>
        <polygon class="cls-12" points="105.74 599.42 106 606.02 106 606.03 795.88 -84.6 791.74 -87.15 105.74 599.42"/>
        <polygon class="cls-1" points="128.58 635.88 128.85 642.17 128.86 642.17 826.91 -58.05 822.93 -60.48 128.58 635.88"/>
        <polygon class="cls-2" points="152.02 673.3 152.31 679.25 152.31 679.26 858.72 -30.83 854.94 -33.12 152.02 673.3"/>
        <polygon class="cls-4" points="176.08 711.73 176.38 717.33 176.39 717.33 891.37 -2.9 887.78 -5.05 176.08 711.73"/>
        <polygon class="cls-3" points="200.8 751.19 201.11 756.43 201.12 756.43 924.87 25.76 921.48 23.76 200.8 751.19"/>
        <polygon class="cls-10" points="956.09 53.35 226.2 791.75 226.51 796.6 226.52 796.6 959.26 55.18 956.09 53.35"/>
      </g>
    </g>
  </g>
</svg>