<?xml version="1.0" encoding="UTF-8"?>
<svg id="Layer_2" data-name="Layer 2" xmlns="http://www.w3.org/2000/svg" viewBox="0 0 83.14 83.14">
  <defs>
    <style>
      .cls-1 {
        fill: #000;
        stroke-width: 0px;
      }
    </style>
  </defs>
  <g id="Layer_1-2" data-name="Layer 1">
    <path class="cls-1" d="M41.57,0C18.61,0,0,18.61,0,41.57s18.61,41.57,41.57,41.57,41.57-18.61,41.57-41.57S64.53,0,41.57,0ZM60.19,54.86c1.36,1.36,1.36,3.56,0,4.92l-.42.42c-1.36,1.36-3.56,1.36-4.92,0l-13.29-13.29-13.29,13.29c-1.36,1.36-3.56,1.36-4.92,0l-.42-.42c-1.36-1.36-1.36-3.56,0-4.92l13.29-13.29-13.29-13.29c-1.36-1.36-1.36-3.56,0-4.92l.42-.42c1.36-1.36,3.56-1.36,4.92,0l13.29,13.29,13.29-13.29c1.36-1.36,3.56-1.36,4.92,0l.42.42c1.36,1.36,1.36,3.56,0,4.92l-13.29,13.29,13.29,13.29Z"/>
  </g>
</svg>