<?xml version="1.0" encoding="UTF-8"?>
<svg id="Layer_2" data-name="Layer 2" xmlns="http://www.w3.org/2000/svg" viewBox="0 0 79.17 79.17">
  <defs>
    <style>
      .cls-1 {
        fill: #000;
        stroke-width: 0px;
      }
    </style>
  </defs>
  <g id="Layer_1-2" data-name="Layer 1">
    <g>
      <path class="cls-1" d="M7.29,0h22.92c4.03,0,7.29,4.03,7.29,7.29v22.92c0,4.03-3.27,7.29-7.29,7.29H7.29c-4.03,0-7.29-4.03-7.29-7.29V7.29C0,3.27,3.27,0,7.29,0Z"/>
      <path class="cls-1" d="M48.96,0h22.92c4.03,0,7.29,4.03,7.29,7.29v22.92c0,4.03-3.27,7.29-7.29,7.29h-22.92c-4.03,0-7.29-4.03-7.29-7.29V7.29C41.67,3.27,44.93,0,48.96,0Z"/>
      <path class="cls-1" d="M7.29,41.66h22.92c4.03,0,7.29,4.03,7.29,7.29v22.92c0,4.03-3.27,7.29-7.29,7.29H7.29c-4.03,0-7.29-4.03-7.29-7.29v-22.92c0-4.03,3.27-7.29,7.29-7.29Z"/>
      <path class="cls-1" d="M48.96,41.66h22.92c4.03,0,7.29,4.03,7.29,7.29v22.92c0,4.03-3.27,7.29-7.29,7.29h-22.92c-4.03,0-7.29-4.03-7.29-7.29v-22.92c0-4.03,3.27-7.29,7.29-7.29Z"/>
    </g>
  </g>
</svg>