<?xml version="1.0" encoding="UTF-8"?>
<svg id="Layer_2" data-name="Layer 2" xmlns="http://www.w3.org/2000/svg" viewBox="0 0 54.62 50.42">
  <defs>
    <style>
      .cls-1 {
        fill: #fec108;
        stroke-width: 0px;
      }
    </style>
  </defs>
  <g id="Fourth_Row" data-name="Fourth Row">
    <g>
      <path class="cls-1" d="m29.95.01c-.05,0-.11-.01-.16-.01-1.45,0-2.46,1.18-2.46,2.63s.56,2.59,2.74,2.62h0c10.38.15,19.45,9.01,19.45,19.89s-9.01,20.02-19.97,20.02-19.16-7.9-19.92-18.27h4.62l-7.13-11.85L0,26.89h4.37c.77,13.11,11.73,23.53,25.1,23.53s25.15-11.34,25.15-25.21S43.6.27,29.95.01Z"/>
      <path class="cls-1" d="m32.26,12.26c0-1.24-.99-2.3-2.23-2.3h-.48c-1.23,0-2.21,1.06-2.21,2.3v13.22l-6.48,6.46c-.96.96-.91,2.51,0,3.46.91.96,2.5.96,3.45,0l7.16-7.16c.05-.06.1-.12.15-.17.39-.41.63-.96.63-1.57v-14.24h0Z"/>
    </g>
  </g>
</svg>