<?xml version="1.0" encoding="UTF-8"?>
<svg id="Layer_2" data-name="Layer 2" xmlns="http://www.w3.org/2000/svg" viewBox="0 0 31.09 31.24">
  <defs>
    <style>
      .cls-1 {
        fill: #fff;
        fill-rule: evenodd;
        stroke-width: 0px;
      }
    </style>
  </defs>
  <g id="Fourth_Row" data-name="Fourth Row">
    <path class="cls-1" d="m26.56,4.54C23.64,1.61,19.75,0,15.61,0,7.08,0,.13,6.94.13,15.48c0,2.73.71,5.39,2.07,7.74L0,31.24l8.21-2.15c2.26,1.23,4.81,1.88,7.4,1.88h0c8.53,0,15.48-6.94,15.48-15.48,0-4.14-1.61-8.03-4.53-10.95h0s0,0,0,0Zm-10.95,23.82h0c-2.31,0-4.57-.62-6.55-1.79l-.47-.28-4.87,1.28,1.3-4.75-.31-.49c-1.29-2.05-1.97-4.42-1.97-6.85,0-7.09,5.78-12.87,12.87-12.87,3.44,0,6.67,1.34,9.1,3.77,2.43,2.43,3.77,5.67,3.77,9.1,0,7.09-5.78,12.87-12.87,12.87h0s0,0,0,0Zm7.06-9.64c-.39-.19-2.29-1.13-2.64-1.26-.35-.13-.61-.19-.87.19-.26.39-1,1.26-1.22,1.52-.23.26-.45.29-.84.1-.39-.19-1.63-.6-3.11-1.92-1.15-1.03-1.93-2.29-2.15-2.68-.23-.39-.02-.6.17-.79.17-.17.39-.45.58-.68s.26-.39.39-.65c.13-.26.06-.48-.03-.68-.1-.19-.87-2.1-1.19-2.87-.31-.75-.63-.65-.87-.66-.23-.01-.48-.01-.74-.01s-.68.1-1.03.48c-.35.39-1.35,1.32-1.35,3.23s1.39,3.74,1.58,4c.19.26,2.73,4.17,6.61,5.84.92.4,1.64.64,2.21.81.93.29,1.77.25,2.44.15.74-.11,2.29-.94,2.61-1.84.32-.9.32-1.68.23-1.84-.1-.16-.35-.26-.74-.45h0s0,0,0,0Z"/>
  </g>
</svg>