<?xml version="1.0" encoding="UTF-8"?>
<svg id="Layer_2" data-name="Layer 2" xmlns="http://www.w3.org/2000/svg" viewBox="0 0 56.12 56.39">
  <defs>
    <style>
      .cls-1 {
        fill: #2bd465;
        fill-rule: evenodd;
        stroke-width: 0px;
      }
    </style>
  </defs>
  <g id="Fifth_Row" data-name="Fifth Row">
    <path class="cls-1" d="m47.94,8.19C42.67,2.91,35.65,0,28.18,0,12.77,0,.24,12.53.23,27.94c0,4.92,1.28,9.73,3.73,13.97l-3.96,14.48,14.81-3.89c4.08,2.23,8.68,3.4,13.35,3.4h.01c15.4,0,27.93-12.53,27.94-27.94,0-7.47-2.9-14.49-8.18-19.77h0s0,0,0,0Zm-19.76,42.99h0c-4.17,0-8.25-1.12-11.82-3.24l-.85-.5-8.79,2.31,2.35-8.57-.55-.88c-2.32-3.7-3.55-7.97-3.55-12.36,0-12.8,10.42-23.22,23.23-23.22,6.2,0,12.03,2.42,16.42,6.81,4.39,4.39,6.8,10.22,6.8,16.43,0,12.81-10.42,23.22-23.22,23.22h0s0,0,0,0Zm12.74-17.39c-.7-.35-4.13-2.04-4.77-2.27-.64-.23-1.11-.35-1.57.35-.46.7-1.8,2.27-2.21,2.74-.41.47-.81.52-1.51.17-.7-.35-2.95-1.09-5.61-3.46-2.08-1.85-3.48-4.14-3.88-4.84-.41-.7-.04-1.08.31-1.42.31-.31.7-.82,1.05-1.22s.46-.7.7-1.16c.23-.47.12-.87-.06-1.22-.17-.35-1.57-3.79-2.15-5.18-.57-1.36-1.14-1.18-1.57-1.2-.41-.02-.87-.02-1.34-.02s-1.22.17-1.86.87c-.64.7-2.44,2.39-2.44,5.82s2.5,6.76,2.85,7.22c.35.47,4.92,7.52,11.93,10.54,1.67.72,2.97,1.15,3.98,1.47,1.67.53,3.19.46,4.4.28,1.34-.2,4.13-1.69,4.71-3.32.58-1.63.58-3.03.41-3.32-.17-.29-.64-.47-1.34-.82h0s0,0,0,0Z"/>
  </g>
</svg>