<?xml version="1.0" encoding="UTF-8"?>
<svg id="Layer_1" data-name="Layer 1" xmlns="http://www.w3.org/2000/svg" version="1.1" viewBox="0 0 128 128">
  <defs>
    <style>
      .cls-1 {
        fill: #9de880;
        stroke-width: 0px;
      }
    </style>
  </defs>
  <path class="cls-1" d="M117.3,9.3c-19.4,22.6-38.8,45.2-58.2,67.7-7.6-8.4-15.2-16.9-22.8-25.3-3.8-4.2-9.9,2-6.2,6.2,8.6,9.6,17.3,19.2,25.9,28.8,1.5,1.7,4.7,1.7,6.2,0,20.4-23.8,40.8-47.5,61.2-71.3,3.6-4.2-2.5-10.5-6.2-6.2Z"/>
  <path class="cls-1" d="M110.1,47.4c7.4,23.9-2.2,49.9-24.9,61.4-20.3,10.3-45.8,5.3-60.7-11.8-15-17.2-16.5-43-3.5-61.7,15.1-21.9,44.3-27.5,67.2-14.7,4.9,2.8,9.3-4.8,4.4-7.5C51.5-10-1.4,21.7,3.7,69.9c4.7,44.4,57.4,68.3,93.6,41.6,20.8-15.3,28.7-42,21.1-66.4-1.7-5.4-10.1-3.1-8.4,2.3Z"/>
</svg>