<?xml version="1.0" encoding="UTF-8"?>
<svg id="Layer_1" data-name="Layer 1" xmlns="http://www.w3.org/2000/svg" version="1.1" viewBox="0 0 128 128">
  <defs>
    <style>
      .cls-1 {
        fill: #e58080;
        stroke-width: 0px;
      }
    </style>
  </defs>
  <path class="cls-1" d="M64,2.7C30.2,2.7,2.7,30.2,2.7,64s27.5,61.3,61.3,61.3,61.3-27.5,61.3-61.3S97.8,2.7,64,2.7ZM64,119.4c-30.6,0-55.4-24.9-55.4-55.4S33.4,8.6,64,8.6s55.4,24.9,55.4,55.4-24.9,55.4-55.4,55.4Z"/>
  <path class="cls-1" d="M87.5,40.5c-1.1-1.1-3-1.1-4.1,0l-19.3,19.3-19.3-19.3c-1.1-1.1-3-1.1-4.1,0s-1.1,3,0,4.1l19.3,19.3-19.3,19.3c-1.1,1.1-1.1,3,0,4.1.6.6,1.3.9,2.1.9s1.5-.3,2.1-.9l19.3-19.3,19.3,19.3c.6.6,1.3.9,2.1.9s1.5-.3,2.1-.9c1.1-1.1,1.1-3,0-4.1l-19.3-19.3,19.3-19.3c1.1-1.1,1.1-3,0-4.1h0Z"/>
</svg>